# xmcd
#
# Track frame offsets:
#	150
#	4394
#	22435
#	38681
#	57498
#	75041
#	95887
#	112053
#	131692
#	146743
#	164874
#	181718
#	197163
#	214408
#	236438
#	255237
#
# Disc length: 3708 seconds
#
# Revision: 0
# Processed by: cddbd v1.5.1PL2 Copyright (c) Steve Scherf et al.
# Submitted via: EasyCDDAExtractor 8.1.2.3
#
DISCID=e90e7a10
DTITLE=Various Artist - IV my people mission
DYEAR=2005
DGENRE=Rap
TTITLE0=IV My People - Introduction
TTITLE1=Serum, Nysay, Jeff Le Nerf and K - Come back
TTITLE2=Salif - A la muerte
TTITLE3=Jeff Le Nerf feat Sinik - Urgence
TTITLE4=Serum, Nysay, Jeff Le Nerf and K - J'aime
TTITLE5=Salif - Fugazi 2005
TTITLE6=Dany Boss feat Lino - Le train de ma peine
TTITLE7=Jeff Le Nerf - Le préau te parle
TTITLE8=Kool Shen - Enfant du 9.3
TTITLE9=Kool Shen and Salif feat Roldan - Paris-Cuba
TTITLE10=Salif feat Supa Lexx - Mon style
TTITLE11=Salif, Jeff Le Nerf and Kool She - On vit nos rimes
TTITLE12=Nysay - Ma jeunesse
TTITLE13=Les Spécialistes - Mélodie en sous-sol
TTITLE14=Jeff Le Nerf feat Dadoo - For My People Music (Allroadz
TTITLE15=Oxmo Puccino and Kool Shen - Un flingue et des roses (707 T
EXTD=
EXTT0=
EXTT1=
EXTT2=
EXTT3=
EXTT4=
EXTT5=
EXTT6=
EXTT7=
EXTT8=
EXTT9=
EXTT10=
EXTT11=
EXTT12=
EXTT13=
EXTT14=
EXTT15=
PLAYORDER=
